<svg width="16" height="16" viewBox="0 0 16 16" fill="none" xmlns="http://www.w3.org/2000/svg">
<path d="M15.1383 7.53857L13.1717 5.53857C13.0536 5.42308 12.8985 5.35304 12.7338 5.34084C12.5691 5.32864 12.4054 5.37507 12.2717 5.47191C12.1913 5.52586 12.1244 5.59751 12.0761 5.68135C12.0278 5.76518 11.9993 5.85898 11.9928 5.95554C11.9864 6.0521 12.0022 6.14885 12.039 6.23836C12.0757 6.32787 12.1325 6.40777 12.205 6.47191L13.0717 7.33857H8.67166V2.93857L9.53833 3.80524C9.60247 3.8777 9.68236 3.9345 9.77188 3.97128C9.86139 4.00806 9.95814 4.02383 10.0547 4.0174C10.1513 4.01096 10.2451 3.98248 10.3289 3.93415C10.4127 3.88581 10.4844 3.81891 10.5383 3.73857C10.6352 3.6048 10.6816 3.44109 10.6694 3.2764C10.6572 3.1117 10.5872 2.95662 10.4717 2.83857L8.47166 0.871907C8.41233 0.807246 8.34022 0.755619 8.25988 0.720302C8.17955 0.684985 8.09275 0.666748 8.005 0.666748C7.91724 0.666748 7.83044 0.684985 7.75011 0.720302C7.66978 0.755619 7.59766 0.807246 7.53833 0.871907L5.53833 2.83857C5.42284 2.95662 5.3528 3.1117 5.3406 3.2764C5.3284 3.44109 5.37482 3.6048 5.47166 3.73857C5.52562 3.81891 5.59726 3.88581 5.6811 3.93415C5.76494 3.98248 5.85874 4.01096 5.9553 4.0174C6.05185 4.02383 6.1486 4.00806 6.23812 3.97128C6.32763 3.9345 6.40752 3.8777 6.47166 3.80524L7.33833 2.93857V7.33857H2.93833L3.805 6.47191C3.87746 6.40777 3.93426 6.32787 3.97104 6.23836C4.00781 6.14885 4.02359 6.0521 4.01715 5.95554C4.01072 5.85898 3.98224 5.76518 3.9339 5.68135C3.88557 5.59751 3.81867 5.52586 3.73833 5.47191C3.60455 5.37507 3.44085 5.32864 3.27615 5.34084C3.11146 5.35304 2.95638 5.42308 2.83833 5.53857L0.871663 7.53857C0.807001 7.5979 0.755375 7.67002 0.720058 7.75035C0.684741 7.83069 0.666504 7.91748 0.666504 8.00524C0.666504 8.09299 0.684741 8.17979 0.720058 8.26013C0.755375 8.34046 0.807001 8.41258 0.871663 8.47191L2.83833 10.4719C2.95638 10.5874 3.11146 10.6574 3.27615 10.6696C3.44085 10.6818 3.60455 10.6354 3.73833 10.5386C3.81867 10.4846 3.88557 10.413 3.9339 10.3291C3.98224 10.2453 4.01072 10.1515 4.01715 10.0549C4.02359 9.95838 4.00781 9.86163 3.97104 9.77212C3.93426 9.68261 3.87746 9.60271 3.805 9.53857L2.93833 8.67191H7.33833V13.0719L6.47166 12.2052C6.40752 12.1328 6.32763 12.076 6.23812 12.0392C6.1486 12.0024 6.05185 11.9866 5.9553 11.9931C5.85874 11.9995 5.76494 12.028 5.6811 12.0763C5.59726 12.1247 5.52562 12.1916 5.47166 12.2719C5.37482 12.4057 5.3284 12.5694 5.3406 12.7341C5.3528 12.8988 5.42284 13.0539 5.53833 13.1719L7.53833 15.1386C7.59766 15.2032 7.66978 15.2549 7.75011 15.2902C7.83044 15.3255 7.91724 15.3437 8.005 15.3437C8.09275 15.3437 8.17955 15.3255 8.25988 15.2902C8.34022 15.2549 8.41233 15.2032 8.47166 15.1386L10.4717 13.1719C10.5872 13.0539 10.6572 12.8988 10.6694 12.7341C10.6816 12.5694 10.6352 12.4057 10.5383 12.2719C10.4844 12.1916 10.4127 12.1247 10.3289 12.0763C10.2451 12.028 10.1513 11.9995 10.0547 11.9931C9.95814 11.9866 9.86139 12.0024 9.77188 12.0392C9.68236 12.076 9.60247 12.1328 9.53833 12.2052L8.67166 13.0719V8.67191H13.0717L12.205 9.53857C12.1325 9.60271 12.0757 9.68261 12.039 9.77212C12.0022 9.86163 11.9864 9.95838 11.9928 10.0549C11.9993 10.1515 12.0278 10.2453 12.0761 10.3291C12.1244 10.413 12.1913 10.4846 12.2717 10.5386C12.4054 10.6354 12.5691 10.6818 12.7338 10.6696C12.8985 10.6574 13.0536 10.5874 13.1717 10.4719L15.1383 8.47191C15.203 8.41258 15.2546 8.34046 15.2899 8.26013C15.3253 8.17979 15.3435 8.09299 15.3435 8.00524C15.3435 7.91748 15.3253 7.83069 15.2899 7.75035C15.2546 7.67002 15.203 7.5979 15.1383 7.53857Z" fill="white"/>
</svg>
